<svg viewBox="0 0 24 24" width="24px" height="24px" xmlns="http://www.w3.org/2000/svg" >
    <g stroke="none" fill="none" transform="translate(2, 3)">
        <path fill="#2466FF" d="M9.5,14 C6.37038642,14 3.53705308,12.5 1,9.5 C3.53705308,6.5 6.37038642,5 9.5,5 C12.6296136,5 15.4629469,6.5 18,9.5 C15.4629469,12.5 12.6296136,14 9.5,14 Z M9.5,6 C6.91242824,6 4.53603038,7.14778531 2.3371892,9.5 C4.53603038,11.8522147 6.91242824,13 9.5,13 C12.0875718,13 14.4639696,11.8522147 16.6628108,9.5 C14.4639696,7.14778531 12.0875718,6 9.5,6 Z M9.5,0.700000048 C9.77614237,0.700000048 10,0.946243432 10,1.25000004 L10,3.45000001 C10,3.75375662 9.77614237,4 9.5,4 C9.22385763,4 9,3.75375662 9,3.45000001 L9,1.25000004 C9,0.946243432 9.22385763,0.700000048 9.5,0.700000048 Z M14.3727342,1.67704081 C14.6322232,1.77148707 14.7609125,2.07243207 14.6601698,2.34922029 L13.9305268,4.35389791 C13.8297842,4.63068613 13.5377587,4.7785035 13.2782698,4.68405724 C13.0187808,4.58961099 12.8900915,4.28866599 12.9908342,4.01187777 L13.7204772,2.00720014 C13.8212199,1.73041192 14.1132453,1.58259456 14.3727342,1.67704081 Z M18.4963208,4.3626311 C18.7078581,4.540132 18.7306537,4.86122595 18.5472361,5.07981452 L17.2188084,6.66297299 C17.0353908,6.88156156 16.7152166,6.9148697 16.5036792,6.7373688 C16.2921419,6.55986791 16.2693463,6.23877395 16.4527639,6.02018538 L17.7811916,4.43702691 C17.9646092,4.21843834 18.2847834,4.1851302 18.4963208,4.3626311 Z M4.62726575,1.67704081 C4.88675471,1.58259456 5.17878014,1.73041192 5.27952281,2.00720014 L6.00916579,4.01187777 C6.10990847,4.28866599 5.98121918,4.58961099 5.72173023,4.68405724 C5.46224128,4.7785035 5.17021585,4.63068613 5.06947317,4.35389791 L4.33983019,2.34922029 C4.23908752,2.07243207 4.3677768,1.77148707 4.62726575,1.67704081 Z M0.503679236,4.3626311 C0.715216567,4.1851302 1.03539079,4.21843834 1.21880838,4.43702691 L2.54723606,6.02018538 C2.73065365,6.23877395 2.7078581,6.55986791 2.49632076,6.7373688 C2.28478343,6.9148697 1.96460921,6.88156156 1.78119162,6.66297299 L0.452763936,5.07981452 C0.269346347,4.86122595 0.292141904,4.540132 0.503679236,4.3626311 Z M9.5,12 C8.11928813,12 7,10.8807119 7,9.5 C7,8.11928813 8.11928813,7 9.5,7 C10.8807119,7 12,8.11928813 12,9.5 C12,10.8807119 10.8807119,12 9.5,12 Z"></path>
        <rect x="0" y="0" width="24" height="24"></rect>
    </g>
</svg>